<svg width="18" height="20" xmlns="http://www.w3.org/2000/svg"><g fill="#292f37" fill-rule="evenodd"><path d="M8.767 9.503c-.464 0-.922.06-1.362.18a.6.6 0 0 0 .314 1.158 4.012 4.012 0 0 1 5.056 3.868 4.013 4.013 0 0 1-4.008 4.008 4.013 4.013 0 0 1-3.909-4.893.6.6 0 0 0-.452-.717.595.595 0 0 0-.718.452 5.213 5.213 0 0 0 5.079 6.357 5.213 5.213 0 0 0 5.207-5.207 5.212 5.212 0 0 0-5.207-5.206M6.93.793a1.43 1.43 0 0 1 1.304 1.544c-.067.785-.777 1.355-1.543 1.304a1.426 1.426 0 0 1-1.305-1.543A1.42 1.42 0 0 1 6.93.793m-.306 3.645a2.231 2.231 0 0 0 2.407-2.035A2.232 2.232 0 0 0 6.996-.004C5.758-.12 4.692.806 4.59 2.03c-.05.593.135 1.17.52 1.624.384.455.922.734 1.515.783"/><path d="M6.197 13.773c.2 0 .404-.049.59-.15a1.24 1.24 0 0 0 .48-1.688L6.05 9.892l.757-.997a.399.399 0 1 0-.636-.484l-.921 1.212a.4.4 0 0 0-.026.447l1.35 2.263a.435.435 0 0 1-.171.588.436.436 0 0 1-.558-.124l-2.037-2.7a.588.588 0 0 1-.046-.623l1.783-3.136a.98.98 0 0 1 .85-.494h.989c.385 0 .737.228.926.638l1.51 2.263a.4.4 0 0 0 .666-.444L9.009 6.097a1.786 1.786 0 0 0-1.625-1.053h-.99c-.636 0-1.23.344-1.545.898L3.117 8.983l-.061.113a1.39 1.39 0 0 0 .112 1.482l2.036 2.7c.238.32.612.495.993.495M13.455 11.025l.805.01c.635.026 1.186.43 1.395 1.011l1.095 3.598a.592.592 0 0 1-.012.458.594.594 0 0 1-.334.317c-.277.106-.595-.009-.708-.198l-1.045-3.323a.4.4 0 1 0-.763.24l1.076 3.397a1.405 1.405 0 0 0 1.726.631c.35-.134.626-.396.779-.738.152-.341.162-.721.037-1.044l-1.092-3.59a2.353 2.353 0 0 0-2.133-1.559l-.816-.011h-.005a.401.401 0 0 0-.005.801M3.372 6.361l-.225-.915a.597.597 0 0 0-.582-.456H.915a.6.6 0 1 0 0 1.199h1.18l.113.458a.598.598 0 0 0 .725.439.6.6 0 0 0 .439-.725M9.278 14.709a.511.511 0 1 0 0 0M17.058 17.928h-2.785a.6.6 0 0 0 0 1.2h2.785a.6.6 0 1 0 0-1.2"/></g></svg>
