<svg width="22" height="17" xmlns="http://www.w3.org/2000/svg"><g fill="#292F37" fill-rule="evenodd"><path d="M10.134 15.629l.092.39-.169-.371a1.435 1.435 0 0 1-1.726-1.067l-.194-.823a1.425 1.425 0 0 1 .176-1.083c.201-.327.517-.555.967-.66a1.416 1.416 0 0 1 1.083.175c.327.202.554.518.642.89l.194.823a1.434 1.434 0 0 1-1.065 1.726zm-5.158-1.936l-.176.828a1.425 1.425 0 0 1-.622.904 1.443 1.443 0 0 1-1.078.2l-.077-.017a1.422 1.422 0 0 1-.906-.622 1.424 1.424 0 0 1-.199-1.079l.176-.828a1.424 1.424 0 0 1 1.396-1.13c.122 0 .248.014.381.043.375.078.697.3.906.621.208.322.28.705.2 1.08zm6.808-.795a2.217 2.217 0 0 0-1-1.389c-.507-.314-1.107-.412-1.764-.255-.252.06-.483.167-.695.303L7.43 10.24c.29-.287.493-.643.586-1.04.352-1.509 1.245-5.475 1.345-7.336.028-.53-.227-.872-.545-.962L6.481 8.42 4.014 1.06c-.317.095-.564.443-.524.972.142 1.857 1.123 5.804 1.508 7.304.092.356.284.67.536.936l-.797 1.23a2.521 2.521 0 0 0-.777-.308 2.22 2.22 0 0 0-1.68.312 2.22 2.22 0 0 0-.969 1.409l-.176.828a2.21 2.21 0 0 0 .291 1.64.684.684 0 0 0-.505.656c0 .383.311.694.693.694a.684.684 0 0 0 .666-.56c.181.096.371.175.576.22l.083-.393-.006.408a2.236 2.236 0 0 0 2.65-1.721l.176-.828a2.215 2.215 0 0 0-.312-1.68c-.007-.013-.017-.022-.025-.033.117-.11.563-.527 1.052-.99.54.489 1.055.95 1.183 1.066-.007.011-.018.02-.025.033a2.223 2.223 0 0 0-.274 1.688l.194.822a2.24 2.24 0 0 0 2.69 1.662l.076-.018a2.237 2.237 0 0 0 1.661-2.688l-.195-.822zM21.09 1.552L17.665.855a.374.374 0 0 0-.17.003.592.592 0 0 0-.572.27c-.1.156-.648 1.208-1.732 6.53-1.26 6.188-1.177 7.502-1.164 7.631a.584.584 0 0 0 .43.501.394.394 0 0 0 .153.07l3.424.697a.4.4 0 0 0 .16-.783l-2.973-.606c-.003-.052-.01-.375.1-1.28l3.126.637a.399.399 0 0 0 .472-.312.4.4 0 0 0-.31-.472l-3.18-.647c.051-.359.116-.777.196-1.26l3.236.66a.4.4 0 0 0 .161-.783l-3.26-.665c.068-.384.144-.797.23-1.252l3.284.668a.4.4 0 0 0 .16-.783l-3.292-.67c.07-.353.142-.72.222-1.112l.03-.138 3.293.671a.4.4 0 0 0 .16-.783l-3.292-.67c.096-.456.186-.863.272-1.244l3.274.666a.399.399 0 0 0 .471-.312.399.399 0 0 0-.31-.472l-3.254-.662c.112-.475.216-.889.308-1.238l3.2.651a.4.4 0 0 0 .16-.783l-3.147-.64c.266-.909.401-1.164.406-1.175.007-.013.007-.027.014-.039l2.98.606a.401.401 0 0 0 .472-.311.401.401 0 0 0-.313-.472"/></g></svg>