<svg width="22" height="21" xmlns="http://www.w3.org/2000/svg"><g fill="#292F37" fill-rule="evenodd"><path d="M2.244 15.603h4.5v-1.638h-4.5v1.638zm0 3.463h4.5v-2.662h-4.5v2.662zm19.034-6.3H.644a.6.6 0 0 0 0 1.199h.4v5.501a.6.6 0 0 0 .6.6c.176 0 .33-.079.439-.199h5.061a.4.4 0 0 0 .4-.401v-5.501h12.134v5.501a.6.6 0 0 0 1.199 0v-5.501h.401a.599.599 0 1 0 0-1.199zM9.369 10.692a.6.6 0 0 0 0 1.199h4.339a.599.599 0 1 0 0-1.199h-4.34zM6.375 1.25H16.7c.372 0 .674.303.674.674V6.29H5.7V1.924c0-.371.303-.674.675-.674M16.7 8.658H6.375a.676.676 0 0 1-.676-.674v-.892h11.676v.892a.676.676 0 0 1-.674.674M6.375 9.857H16.7a1.874 1.874 0 0 0 1.873-1.873v-6.06c0-1.033-.84-1.873-1.873-1.873H6.375C5.34.05 4.5.89 4.5 1.924v6.06c0 1.034.841 1.873 1.875 1.873"/></g></svg>