<svg width="21" height="17" xmlns="http://www.w3.org/2000/svg"><g fill="#292F37" fill-rule="evenodd"><path d="M17.33 10.492H3.82C4.153 7.38 7.056 4.94 10.575 4.94c3.52 0 6.422 2.44 6.755 5.55m-7.14-7.577c-.005.026-.015.05-.015.078v.769c-4.217.194-7.586 3.402-7.586 7.33 0 .332.268.6.599.6h14.774a.599.599 0 0 0 .599-.6c0-3.928-3.37-7.136-7.585-7.33v-.77c0-.026-.011-.051-.016-.077.555-.168.965-.663.965-1.273a1.35 1.35 0 1 0-2.7 0c0 .61.41 1.105.965 1.273M2.502 15.247l.629-1.434H18.02l.628 1.434H2.502zm16.457-2.274a.6.6 0 0 0-.549-.36H2.74a.6.6 0 0 0-.55.36l-1.155 2.632a.6.6 0 0 0 .549.841h17.982a.599.599 0 0 0 .55-.841l-1.155-2.632zM20.517 8.776c-.567-2.137-1.91-4.043-3.78-5.365a.4.4 0 1 0-.463.652c1.72 1.216 2.95 2.962 3.47 4.918a.4.4 0 1 0 .773-.205M1.406 8.981c.52-1.956 1.75-3.702 3.47-4.918a.4.4 0 0 0 .094-.558.401.401 0 0 0-.557-.094C2.543 4.733 1.2 6.64.633 8.776a.399.399 0 0 0 .386.503.4.4 0 0 0 .387-.298"/></g></svg>