<svg width="26" height="23" viewBox="0 0 26 23" fill="none" xmlns="http://www.w3.org/2000/svg">
<path fill-rule="evenodd" clip-rule="evenodd" d="M4.99999 5.23689H5.89999V7.51454L2.72072 8.5645C1.65553 8.91628 0.936066 9.91158 0.936066 11.0334L0.936074 22C0.936075 22.3314 1.2047 22.6 1.53607 22.6C1.86745 22.6 2.13607 22.3314 2.13607 22L2.13607 11.0334C2.13607 10.4293 2.52347 9.89339 3.09703 9.70397L6.43977 8.60002H9.50658L12.8985 9.70762C13.4743 9.89565 13.8639 10.4327 13.8639 11.0385L13.8639 22C13.8639 22.3314 14.1326 22.6 14.4639 22.6C14.7953 22.6 15.0639 22.3314 15.0639 22L15.0639 11.0385C15.0639 9.91348 14.3404 8.9161 13.271 8.56689L10.1 7.53144V5.23689H11C11.3314 5.23689 11.6 4.96826 11.6 4.63689V3.87101H14.7211L16.2342 4.79707C16.3764 4.88415 16.5486 4.90807 16.7092 4.86309C16.8698 4.81812 17.0045 4.7083 17.0808 4.56L18.1305 2.52145C18.2795 2.23214 18.1707 1.8768 17.8853 1.7205L15.6086 0.473763C15.5202 0.425383 15.4211 0.400024 15.3204 0.400024L4.99999 0.400046C4.66862 0.400046 4.39999 0.668675 4.39999 1.00005V4.63689C4.39999 4.79602 4.46321 4.94863 4.57573 5.06115C4.68825 5.17367 4.84086 5.23689 4.99999 5.23689ZM15.1669 1.60003L5.59999 1.60005V4.03689H6.49495L6.49999 4.03687H9.49999L9.50504 4.03689H10.4V3.27101C10.4 2.93964 10.6686 2.67101 11 2.67101H14.8902C15.0007 2.67101 15.1091 2.70155 15.2034 2.75926L16.3097 3.43636L16.7959 2.4921L15.1669 1.60003ZM8.89999 7.40002V5.23689H7.09999V7.40002H8.89999Z" fill="#292F37"/>
<path fill-rule="evenodd" clip-rule="evenodd" d="M18.2627 5.53687C18.4875 5.53687 18.6935 5.66254 18.7963 5.86247L20.5731 9.31768C21.0895 10.3218 20.8982 11.5445 20.0998 12.3429C19.0852 13.3575 17.4402 13.3575 16.4256 12.3429C15.6272 11.5445 15.4359 10.3218 15.9523 9.31768L17.7291 5.86247C17.8319 5.66254 18.0379 5.53687 18.2627 5.53687ZM18.2627 7.44884L17.0194 9.86647C16.7415 10.4068 16.8445 11.0648 17.2741 11.4944C17.8201 12.0404 18.7053 12.0404 19.2513 11.4944C19.6809 11.0648 19.7838 10.4068 19.506 9.86647L18.2627 7.44884Z" fill="#292F37"/>
<path d="M9 13V15H11V17H9V19H7V17H5V15H7V13H9Z" fill="#292F37"/>
</svg>
