<svg width="23" height="20" xmlns="http://www.w3.org/2000/svg"><g fill="#292F37" fill-rule="evenodd"><path d="M16.307 9.779a.6.6 0 0 0 0-1.2h-3.704V7.163a.6.6 0 0 0-1.199 0V8.58H8.465c.582-.83 1.126-1.817 1.571-2.701h7.025a.6.6 0 0 0 0-1.2h-6.447c.305-.667.498-1.135.52-1.192a.598.598 0 0 0-.33-.781.602.602 0 0 0-.78.33c-.008.016-.295.716-.738 1.643H6.194a.6.6 0 0 0 0 1.2h2.492c-.565 1.068-1.24 2.19-1.904 2.886a.604.604 0 0 0-.118.65c.095.22.312.364.552.364h4.188v3.535a.7.7 0 0 1-.699.699h-.934a.6.6 0 0 0 0 1.2h.934a1.9 1.9 0 0 0 1.898-1.9V9.78h3.704z"/><path d="M14.502 10.859a.598.598 0 0 0-.837.145.598.598 0 0 0 .146.835c.914.646 2.518 2.188 2.794 2.632a.599.599 0 0 0 1.02-.631c-.41-.665-2.185-2.318-3.123-2.981M9.748 11.72a.599.599 0 1 0-.98-.692c-.548.776-2.325 2.052-2.973 2.454a.6.6 0 1 0 .633 1.02c.477-.297 2.57-1.722 3.32-2.783"/><path d="M15.432 16.802a.404.404 0 0 0-.329-.046 12.067 12.067 0 0 1-3.459.507c-5.56 0-10.083-3.675-10.083-8.192 0-4.518 4.523-8.193 10.083-8.193 5.56 0 10.083 3.675 10.083 8.193 0 2.065-.96 4.043-2.705 5.57a.398.398 0 0 0-.136.322c.057 1.02.483 2.236 1.163 3.365-1.773-.098-3.507-.82-4.617-1.526m4.268-1.695c1.825-1.662 2.828-3.798 2.828-6.036 0-4.959-4.883-8.994-10.884-8.994C5.644.077.76 4.112.76 9.071c0 4.96 4.883 8.993 10.884 8.993a12.85 12.85 0 0 0 3.514-.49c1.298.79 3.295 1.566 5.298 1.566.12 0 .237-.003.355-.009a.4.4 0 0 0 .307-.632c-.79-1.105-1.31-2.357-1.418-3.392"/></g></svg>