<svg width="24" height="20" xmlns="http://www.w3.org/2000/svg"><g fill="#292f37" fill-rule="evenodd"><path d="M14.647 18.596a.97.97 0 1 1 0 0m0-2.74c-.976 0-1.771.795-1.771 1.77 0 .976.795 1.771 1.771 1.771.976 0 1.771-.795 1.771-1.77 0-.976-.795-1.77-1.771-1.77M17.483 5.582a.688.688 0 1 0-1.375 0 .688.688 0 0 0 1.375 0"/><path d="M22.395 5.391a.544.544 0 0 0-.098-.026c-3.314-.61-3.461-1.198-3.602-1.765-.133-.532-.315-1.26-1.582-1.875-1.507-.73-6.514-2.186-8.454-.153-1.132 1.186-1.872 5.697-.644 7.724.586.967 1.541 1.32 2.692.986 1.629-.47 2.652-1.176 3.125-2.156.614-1.27.165-2.738-.355-4.006a.6.6 0 0 0-1.109.455c.594 1.45.71 2.356.384 3.03-.317.655-1.094 1.154-2.377 1.524-.634.184-1.031.046-1.334-.454-.973-1.606-.255-5.499.485-6.275 1.304-1.364 5.541-.335 7.063.403.763.37.834.655.942 1.087.276 1.108.761 1.948 4.479 2.642.142.088.215.45.082.992-.351 1.436-1.964 3.317-4.429 2.995-3.702-.482-4.837 1.002-5.131 2.331a12.88 12.88 0 0 1-.341 1.215c-2.87-.809-6.009-2.87-7.86-6.153a13.78 13.78 0 0 0 2.054-.566.598.598 0 0 0 .353-.77.595.595 0 0 0-.771-.353c-.691.257-1.47.441-2.19.573-.06-.135-.124-.267-.179-.407a.6.6 0 0 0-1.115.441c.021.053.047.103.068.155-.697.088-1.18.117-1.192.117A.6.6 0 0 0 1.392 8.3h.034c.057-.004.736-.045 1.659-.176 1.97 3.76 5.471 6.131 8.689 7.07a16.12 16.12 0 0 1-.665 1.423.599.599 0 1 0 1.047.584c.025-.046.401-.73.801-1.73.118.022.236.048.351.066a.6.6 0 0 0 .182-1.186c-.041-.006-.083-.017-.124-.023.124-.389.242-.794.336-1.218.1-.456.403-1.849 3.806-1.402 3.205.412 5.291-2.03 5.749-3.9.291-1.189-.039-2.115-.862-2.417"/></g></svg>
