<svg width="23" height="23" xmlns="http://www.w3.org/2000/svg" xmlns:xlink="http://www.w3.org/1999/xlink"><defs><path d="M5.809 19.046l1.454-1.068A.4.4 0 0 1 7.5 17.9h7.1a.4.4 0 0 1 .237.078l1.43 1.05.343-1.12.088-.154c.672-.733 1.145-1.525 1.422-2.377.238-.735.387-1.329.448-1.777l-15.105.01c.009.238.125.864.417 1.767.363 1.115.84 1.926 1.426 2.438l.112.164.391 1.067zm9.891-8.13V10.5a.4.4 0 1 1 .8 0v.416h.2V4.743A1.843 1.843 0 0 0 14.857 2.9h-.243a1.6 1.6 0 0 0-1.463.951A1.9 1.9 0 0 1 14.61 5.7c0 1.362-3.8 1.362-3.8 0a1.9 1.9 0 0 1 1.495-1.857A2.401 2.401 0 0 1 14.614 2.1h.243A2.643 2.643 0 0 1 17.5 4.743v6.173h.2V10.5a.4.4 0 1 1 .8 0v.416h.546a1.34 1.34 0 0 1 .333 2.64c-.056.53-.223 1.217-.499 2.067-.304.938-.816 1.807-1.531 2.604l-.483 1.574a.4.4 0 0 1-.619.205L14.47 18.7H7.631l-1.778 1.306a.4.4 0 0 1-.612-.185l-.54-1.474c-.668-.617-1.193-1.527-1.581-2.724-.299-.919-.455-1.587-.436-2.052a1.341 1.341 0 0 1 .27-2.655H15.7zm-12.746.8a.54.54 0 0 0 0 1.082h16.092a.54.54 0 1 0 0-1.082H2.954zM13.81 5.7a1.1 1.1 0 0 0-2.2 0c0 .295 2.2.295 2.2 0z" id="a"/></defs><g fill="none" fill-rule="evenodd"><mask id="b" fill="#fff"><use xlink:href="#a"/></mask><use fill="#333" fill-rule="nonzero" xlink:href="#a"/><g mask="url(#b)" fill="#292F37"><path d="M0 0h23v23H0z"/></g></g></svg>