<svg width="24" height="24" xmlns="http://www.w3.org/2000/svg"><g fill="#292F37" fill-rule="evenodd"><path d="M13.587 8.058a.399.399 0 0 0 .564-.037l.99-1.128a.4.4 0 0 0-.602-.527l-.989 1.128a.4.4 0 0 0 .037.564M16.135 5.552a.4.4 0 0 0 .301-.137l.988-1.128a.4.4 0 1 0-.602-.527l-.988 1.128a.4.4 0 0 0 .301.664"/><path d="M14.825 16.78c-.024.02-.053.03-.075.056-.231.089-.924-.128-1.914-.7l.602-.23.785-.3c.319.5.52.903.602 1.175zm-12.86 5.28a.365.365 0 0 1-.383-.072.363.363 0 0 1-.106-.376l3.379-11.67c.785 1.52 2.447 3.306 3.7 4.458 1.254 1.152 3.172 2.652 4.75 3.307l-1.85.71c-.034 0-.07 0-.107.01-.434.137-2.15-.432-4.318-2.426a15.471 15.471 0 0 1-1.282-1.32.403.403 0 0 0-.565-.042.403.403 0 0 0-.043.565c.402.466.855.932 1.349 1.387 1.239 1.137 2.507 1.97 3.534 2.377l-2.373.91c-.026.003-.052 0-.078.007-.218.073-1.301-.282-2.685-1.553a10.127 10.127 0 0 1-.912-.951.4.4 0 1 0-.615.511c.283.34.615.687.986 1.029.707.649 1.417 1.143 2.04 1.443l-2.41.925c-.137-.015-.56-.192-1.106-.695-.1-.09-.191-.18-.273-.27a.399.399 0 1 0-.585.546 5.336 5.336 0 0 0 .953.807l-1 .384zM6.223 9.93c-.48-.742-.693-1.273-.64-1.46.029-.031.043-.07.064-.104.265.054.645.199 1.118.437a21.26 21.26 0 0 1-.542 1.128zm4.699 1.887c1.262 1.16 2.186 2.229 2.834 3.112l-.606.23c-.374.145-.763.294-1.161.445a22.27 22.27 0 0 1-2.621-2.087c-1.168-1.073-2.03-2.054-2.645-2.874.028-.027.06-.047.079-.082.255-.483.469-.934.665-1.37.956.568 2.14 1.419 3.455 2.626zm3.998 2.68c-.78-1.121-1.886-2.368-3.186-3.563-1.295-1.19-2.625-2.182-3.804-2.864 1.362-3.653.544-5.397.05-6.033C7.41 1.3 6.546.982 5.676 1.194 4.513 1.47 4.082 2.418 4.172 3.18c.09.776.675 1.317 1.422 1.317a.401.401 0 0 0 0-.801c-.411 0-.593-.314-.627-.608-.052-.437.205-.952.893-1.117.563-.134 1.115.075 1.488.556.319.41 1.084 1.85-.124 5.157-1.35-.658-2.293-.717-2.8-.164a.608.608 0 0 0-.125.207.619.619 0 0 0-.113.214L.324 21.278a1.568 1.568 0 0 0 2.071 1.903l12.963-4.976a.589.589 0 0 0 .216-.15.588.588 0 0 0 .18-.127c.505-.548.37-1.474-.383-2.746 2.04-.728 3.54-1.06 4.343-.277.367.359.505.755.399 1.146-.113.414-.495.778-.93.885-.23.058-.562.064-.841-.234a.401.401 0 0 0-.584.547c.317.339.734.518 1.184.518.143 0 .288-.017.436-.054.713-.177 1.318-.761 1.507-1.453.184-.676-.034-1.361-.613-1.927-1.14-1.112-2.943-.707-5.352.164zM12.218 1.56a1.32 1.32 0 1 1 0 2.641 1.32 1.32 0 0 1 0-2.64m0 3.44a2.124 2.124 0 0 0 2.121-2.122c0-1.169-.952-2.12-2.12-2.12-1.17 0-2.12.951-2.12 2.12 0 1.17.95 2.121 2.12 2.121"/><path d="M10.636 7.225a.667.667 0 0 0 1.332 0 .667.667 0 0 0-1.332 0M22.677 6.391a.667.667 0 0 0 0-1.332.667.667 0 0 0 0 1.332M18.403 2.931a.416.416 0 1 0 0 0M22.312 19.325h-.015a.665.665 0 0 0 .087 1.327l.089-.006a.668.668 0 0 0 .572-.75c-.044-.324-.321-.571-.733-.571M22.495 10.927a.667.667 0 0 0 0 1.332.667.667 0 0 0 0-1.332M20.358 9.913a.4.4 0 0 0-.186.322l-.05 1.295-.996-.827a.401.401 0 0 0-.365-.077l-1.248.352.48-1.205a.402.402 0 0 0-.04-.37l-.72-1.076 1.293.083c.14 0 .258-.05.34-.152l.8-1.018.32 1.255a.397.397 0 0 0 .25.276l1.217.449-1.095.693zm2.39-.83a.402.402 0 0 0-.258-.333l-1.78-.656-.468-1.836a.401.401 0 0 0-.702-.15l-1.173 1.49-1.892-.122a.4.4 0 1 0-.357.623l1.053 1.575-.701 1.762a.4.4 0 0 0 .48.533l1.826-.516 1.459 1.21a.4.4 0 0 0 .655-.292l.073-1.895 1.602-1.013a.4.4 0 0 0 .184-.38z"/></g></svg>