<svg width="25" height="20" xmlns="http://www.w3.org/2000/svg"><g fill="#292F37" fill-rule="evenodd"><path d="M23.552 18.712h-.909l-.568-1.488a.598.598 0 0 0-.56-.387H9.265a.6.6 0 0 0-.562.387l-.567 1.488h-.909v-5.748c0-.312.253-.565.563-.565h15.2c.31 0 .562.254.562.565v5.748zM9.025 6.122h12.73c.58 0 1.053.473 1.053 1.054V11.2h-1.196c.003-.598.052-1.413.24-1.897a.402.402 0 0 0-.24-.523c-1.655-.58-3.953-.582-5.719-.002a.4.4 0 0 0-.231.564c.174.333.192 1.169.156 1.858h-1.235c-.026-.593-.015-1.414.171-1.897a.402.402 0 0 0-.24-.523c-1.676-.59-3.83-.59-5.617-.002a.4.4 0 0 0-.231.564c.174.333.192 1.169.156 1.858h-.85V7.176c0-.582.472-1.054 1.053-1.054zm7.501 3.303c1.417-.379 3.117-.38 4.456-.005-.137.588-.167 1.284-.169 1.78h-4.196c.026-.515.032-1.226-.09-1.775zM9.53 9.422c1.403-.374 3.036-.376 4.36-.002-.128.586-.128 1.28-.106 1.779H9.621c.026-.515.032-1.226-.09-1.776zm14.08 1.895V7.176a1.857 1.857 0 0 0-1.856-1.854H9.025A1.857 1.857 0 0 0 7.17 7.176v4.143a1.761 1.761 0 0 0-1.142 1.644v6.348c0 .332.268.6.6.6H8.55a.6.6 0 0 0 .561-.387l.567-1.488h11.423l.567 1.488a.6.6 0 0 0 .561.387h1.923a.599.599 0 0 0 .6-.6v-6.348c0-.752-.477-1.393-1.143-1.645z"/><path d="M22.456 14.637H8.323a.4.4 0 0 0 0 .8h14.133a.4.4 0 1 0 0-.8M1.298 5.242l.583-3.993h2.35l.583 3.993H1.298zM4.576.45h-3.04a.398.398 0 0 0-.396.342l-.7 4.792a.4.4 0 0 0 .395.458h1.841v13.1h-.54a.4.4 0 1 0 0 .8h1.841a.4.4 0 0 0 0-.8h-.5v-13.1h1.8a.398.398 0 0 0 .395-.458l-.7-4.792A.399.399 0 0 0 4.576.45z"/><path d="M4.574 6.67a.416.416 0 0 0-.44.09.407.407 0 0 0-.11.28c0 .11.04.21.11.29.08.07.18.11.28.11.11 0 .21-.04.29-.11a.4.4 0 0 0 .12-.29.42.42 0 0 0-.25-.37M4.414 7.97a.4.4 0 0 0-.39.4.4.4 0 1 0 .39-.4M4.704 9.42a.371.371 0 0 0-.13-.09.416.416 0 0 0-.44.09.378.378 0 0 0-.08.13.384.384 0 0 0-.03.15.393.393 0 0 0 .39.4c.11 0 .21-.04.29-.12a.395.395 0 0 0 .09-.43.315.315 0 0 0-.09-.13"/></g></svg>