<svg width="23" height="23" xmlns="http://www.w3.org/2000/svg" xmlns:xlink="http://www.w3.org/1999/xlink"><defs><path d="M21.9 8.955a.887.887 0 0 1-.7.86v2.035c.398.093.7.433.7.86v.954a.888.888 0 0 1-.7.86V16.4a2.4 2.4 0 0 1-2.4 2.4h-.425a.7.7 0 0 1-.7.7h-1.6a.7.7 0 0 1-.7-.7H8.047a.7.7 0 0 1-.7.7h-1.6a.7.7 0 0 1-.7-.7H4.4A2.4 2.4 0 0 1 2 16.4v-11A2.4 2.4 0 0 1 4.4 3h14.4a2.4 2.4 0 0 1 2.4 2.4v1.741c.398.093.7.434.7.86v.954zM20.4 16.4v-1.836h-1.18v1.389a.9.9 0 0 1-.9.9H4.87a.9.9 0 0 1-.9-.9V5.846a.9.9 0 0 1 .9-.9h13.45a.9.9 0 0 1 .9.9v1.255h1.18V5.4a1.6 1.6 0 0 0-1.6-1.6H4.4a1.6 1.6 0 0 0-1.6 1.6v11A1.6 1.6 0 0 0 4.4 18h14.4a1.6 1.6 0 0 0 1.6-1.6zm-2.725 2.7a.3.3 0 0 1-.3-.3h-1a.3.3 0 0 1-.3.3h1.6zm-10.328 0a.3.3 0 0 1-.3-.3h-1a.3.3 0 0 1-.3.3h1.6zM19.22 9.055h1.18V7.901h-1.18v1.154zm0 2.755h1.18V9.856h-1.18v1.954zm0 1.953h1.18v-1.154h-1.18v1.154zm-.8-6.606V5.846a.099.099 0 0 0-.1-.099H4.87a.1.1 0 0 0-.1.099v10.107a.1.1 0 0 0 .1.1h13.45a.1.1 0 0 0 .1-.1v-1.446a.89.89 0 0 1-.62-.843v-.954c0-.398.263-.725.62-.844V9.799a.892.892 0 0 1-.62-.844v-.954c0-.398.263-.725.62-.844zM7.317 11.2a.4.4 0 1 1 0 .8h-.6a.4.4 0 1 1 0-.8h.6zm0 1.307a.4.4 0 1 1 0 .8h-.6a.4.4 0 1 1 0-.8h.6zm0 1.255a.4.4 0 1 1 0 .8h-.6a.4.4 0 1 1 0-.8h.6zM9.406 11.2a.4.4 0 1 1 0 .8h-.61a.4.4 0 1 1 0-.8h.61zm0 1.307a.4.4 0 1 1 0 .8h-.61a.4.4 0 1 1 0-.8h.61zm0 1.255a.4.4 0 1 1 0 .8h-.61a.4.4 0 1 1 0-.8h.61zm2.081-2.562a.4.4 0 1 1 0 .8h-.6a.4.4 0 1 1 0-.8h.6zm0 1.307a.4.4 0 1 1 0 .8h-.6a.4.4 0 1 1 0-.8h.6zm0 1.255a.4.4 0 1 1 0 .8h-.6a.4.4 0 1 1 0-.8h.6zm.06-6.425a.5.5 0 0 1 .5.5v2a.5.5 0 0 1-.5.5h-5a.5.5 0 0 1-.5-.5v-2a.5.5 0 0 1 .5-.5h5zm-4.7 2.2h4.4v-1.4h-4.4v1.4z" id="a"/></defs><g fill="none" fill-rule="evenodd"><mask id="b" fill="#fff"><use xlink:href="#a"/></mask><use fill="#333" xlink:href="#a"/><g mask="url(#b)" fill="#292F37"><path d="M0 0h23v23H0z"/></g></g></svg>