<svg width="21" height="20" xmlns="http://www.w3.org/2000/svg"><g fill="#292F37" fill-rule="evenodd"><path d="M5.42 3.136h10.662c.723 0 1.31.507 1.472 1.228-.45-.162-1.002-.24-1.534-.24H5.482c-.535 0-1.088.08-1.54.241.144-.706.742-1.229 1.478-1.229M2.793 7.322a.604.604 0 0 0 .695-.487l.246-1.39c.011-.024.036-.038.041-.065.05-.13.63-.455 1.707-.455H16.02c1.077 0 1.657.325 1.706.453.008.038.03.071.048.103l.24 1.354a.6.6 0 1 0 1.181-.209l-.397-2.225a2.72 2.72 0 0 0-2.716-2.464H5.42c-1.41 0-2.579 1.06-2.71 2.418l-.403 2.271a.6.6 0 0 0 .486.696M8.444 1.254h4.615a.6.6 0 0 0 0-1.2H8.444a.6.6 0 1 0 0 1.2M19.187 14.895a.586.586 0 0 1-.585.584H2.901a.586.586 0 0 1-.585-.584V12.06a2.605 2.605 0 0 1 2.602-2.602h11.666a2.605 2.605 0 0 1 2.603 2.602v2.836zm1.28-6.218a.597.597 0 0 0 0-.847.597.597 0 0 0-.847 0l-.8.8a.58.58 0 0 0-.144.26 3.781 3.781 0 0 0-2.092-.633H4.918c-.811 0-1.56.26-2.178.695a.592.592 0 0 0-.157-.324l-.8-.799a.6.6 0 1 0-.848.85l.801.8a.572.572 0 0 0 .286.147 3.764 3.764 0 0 0-.905 2.433v2.836c0 .983.799 1.783 1.784 1.783h15.701c.984 0 1.784-.8 1.784-1.783V12.06c0-.937-.354-1.786-.919-2.45a.581.581 0 0 0 .2-.132l.8-.8zM5.57 17.628a.4.4 0 0 0-.4.4v.433a.21.21 0 0 1-.21.21H3.006a.21.21 0 0 1-.21-.21v-.432a.401.401 0 0 0-.801 0v.431c0 .558.454 1.012 1.01 1.012h1.957c.556 0 1.01-.454 1.01-1.012v-.431a.4.4 0 0 0-.4-.4M19.109 17.628a.4.4 0 0 0-.4.4v.433a.21.21 0 0 1-.21.21h-1.956a.21.21 0 0 1-.21-.21v-.432a.401.401 0 0 0-.801 0v.431c0 .558.454 1.012 1.01 1.012H18.5c.556 0 1.01-.454 1.01-1.012v-.431a.4.4 0 0 0-.4-.4"/><path d="M6.078 10.833H4.226a.6.6 0 0 0 0 1.199h1.852a.6.6 0 1 0 0-1.2M12.684 11.032H8.82a.401.401 0 0 0 0 .8h3.865a.4.4 0 0 0 0-.8M12.684 12.78H8.82a.401.401 0 0 0 0 .802h3.865a.4.4 0 0 0 0-.801M17.237 10.833h-1.851a.6.6 0 0 0 0 1.199h1.85a.6.6 0 1 0 0-1.2"/></g></svg>