<?xml version="1.0" standalone="yes"?>
<svg xmlns="http://www.w3.org/2000/svg" width="1326" height="188">
<path style="fill:#010101; stroke:none;" d="M0 0L0 188L1326 188L1326 0L0 0z"/>
<path style="fill:#e6e6e6; stroke:none;" d="M1190 19L1190 20L1210 37C1205.95 31.4547 1196.77 20.0954 1190 19z"/>
<path style="fill:#b0b0b0; stroke:none;" d="M1191 20L1192 21L1191 20z"/>
<path style="fill:#e6e6e6; stroke:none;" d="M1190 21L1190 72L75 72L75 73L1191 73L1191 38L1190 21z"/>
<path style="fill:#656565; stroke:none;" d="M1191 21L1192 22L1191 21z"/>
<path style="fill:#333333; stroke:none;" d="M1192 21L1191 23L1192 21z"/>
<path style="fill:#b0b0b0; stroke:none;" d="M1193 21L1194 22L1193 21z"/>
<path style="fill:#010101; stroke:none;" d="M1192 22L1192 61L1190.48 73.9722L1172 75L1122 75L929 75L65 75L65 101L931 101L1122 101L1172 101L1190.48 102.028L1192 115L1192 153L1213.42 133L1258 89L1236 65L1192 22z"/>
<path style="fill:#656565; stroke:none;" d="M1193 22L1194 23L1193 22M1191 23L1191 73L1192 73C1192 58.9507 1196.41 35.8895 1191 23z"/>
<path style="fill:#333333; stroke:none;" d="M1194 23L1195 24L1194 23z"/>
<path style="fill:#656565; stroke:none;" d="M1195 24L1196 25L1195 24z"/>
<path style="fill:#333333; stroke:none;" d="M1195 25L1196 26L1195 25z"/>
<path style="fill:#b0b0b0; stroke:none;" d="M1196 25L1197 26L1196 25M1197 26L1198 27L1197 26z"/>
<path style="fill:#333333; stroke:none;" d="M1197 27L1198 28L1197 27z"/>
<path style="fill:#656565; stroke:none;" d="M1198 27L1199 28L1198 27M1199 28L1200 29L1199 28z"/>
<path style="fill:#333333; stroke:none;" d="M1199 29L1200 30L1199 29z"/>
<path style="fill:#b0b0b0; stroke:none;" d="M1200 29L1201 30L1200 29M1201 30L1202 31L1201 30z"/>
<path style="fill:#333333; stroke:none;" d="M1201 31L1202 32L1201 31z"/>
<path style="fill:#656565; stroke:none;" d="M1202 31L1203 32L1202 31M1203 32L1204 33L1203 32z"/>
<path style="fill:#333333; stroke:none;" d="M1203 33L1204 34L1203 33z"/>
<path style="fill:#b0b0b0; stroke:none;" d="M1204 33L1205 34L1204 33z"/>
<path style="fill:#333333; stroke:none;" d="M1205 34L1206 35L1205 34z"/>
<path style="fill:#656565; stroke:none;" d="M1206 35L1207 36L1206 35z"/>
<path style="fill:#333333; stroke:none;" d="M1207 36L1208 37L1207 36z"/>
<path style="fill:#b0b0b0; stroke:none;" d="M1208.67 37.3333L1209.33 37.6667L1208.67 37.3333z"/>
<path style="fill:#333333; stroke:none;" d="M1209 38L1210 39L1209 38z"/>
<path style="fill:#e6e6e6; stroke:none;" d="M1210 38C1221.5 54.3209 1241.65 74.4855 1258 86L1228 54.6898L1210 38z"/>
<path style="fill:#656565; stroke:none;" d="M1210 39L1211 40L1210 39z"/>
<path style="fill:#333333; stroke:none;" d="M1211 40L1212 41L1211 40z"/>
<path style="fill:#b0b0b0; stroke:none;" d="M1212 41L1213 42L1212 41z"/>
<path style="fill:#333333; stroke:none;" d="M1213 42L1214 43L1213 42z"/>
<path style="fill:#656565; stroke:none;" d="M1214 43L1215 44L1214 43z"/>
<path style="fill:#333333; stroke:none;" d="M1215 44L1216 45L1215 44z"/>
<path style="fill:#b0b0b0; stroke:none;" d="M1216 45L1217 46L1216 45z"/>
<path style="fill:#333333; stroke:none;" d="M1217 46L1218 47L1217 46z"/>
<path style="fill:#b0b0b0; stroke:none;" d="M1218 47L1219 48L1218 47z"/>
<path style="fill:#333333; stroke:none;" d="M1219 48L1220 49L1219 48z"/>
<path style="fill:#b0b0b0; stroke:none;" d="M1220 49L1221 50L1220 49z"/>
<path style="fill:#333333; stroke:none;" d="M1221 50L1222 51L1221 50z"/>
<path style="fill:#b0b0b0; stroke:none;" d="M1222 51L1223 52L1222 51z"/>
<path style="fill:#333333; stroke:none;" d="M1223 52L1224 53L1223 52z"/>
<path style="fill:#656565; stroke:none;" d="M1224 53L1225 54L1224 53z"/>
<path style="fill:#333333; stroke:none;" d="M1225 54L1226 55L1225 54z"/>
<path style="fill:#b0b0b0; stroke:none;" d="M1226 55L1227 56L1226 55z"/>
<path style="fill:#333333; stroke:none;" d="M1227 56L1228 57L1227 56z"/>
<path style="fill:#656565; stroke:none;" d="M1228 57L1229 58L1228 57z"/>
<path style="fill:#333333; stroke:none;" d="M1229 58L1230 59L1229 58z"/>
<path style="fill:#b0b0b0; stroke:none;" d="M1230 59L1231 60L1230 59z"/>
<path style="fill:#333333; stroke:none;" d="M1231 60L1232 61L1231 60z"/>
<path style="fill:#656565; stroke:none;" d="M1232 61L1233 62L1232 61z"/>
<path style="fill:#333333; stroke:none;" d="M1233 62L1234 63L1233 62z"/>
<path style="fill:#b0b0b0; stroke:none;" d="M1234 63L1235 64L1234 63z"/>
<path style="fill:#333333; stroke:none;" d="M1235 64L1236 65L1235 64z"/>
<path style="fill:#656565; stroke:none;" d="M1236 65L1237 66L1236 65z"/>
<path style="fill:#333333; stroke:none;" d="M1237 66L1238 67L1237 66z"/>
<path style="fill:#b0b0b0; stroke:none;" d="M1238 67L1239 68L1238 67z"/>
<path style="fill:#333333; stroke:none;" d="M1239 68L1241 70L1239 68z"/>
<path style="fill:#b0b0b0; stroke:none;" d="M1240 68L1241 69L1240 68M1241 70L1242 71L1241 70z"/>
<path style="fill:#333333; stroke:none;" d="M1192.33 71.6667L1192.67 72.3333L1192.33 71.6667M1242 71L1243 72L1242 71z"/>
<path style="fill:#656565; stroke:none;" d="M1243 72L1244 73L1243 72z"/>
<path style="fill:#e6e6e6; stroke:none;" d="M62 73L62 101L63 101L64 73L62 73z"/>
<path style="fill:#b0b0b0; stroke:none;" d="M63 102L64 102L64 74L1191 74C1184.56 71.2994 1174.95 73 1168 73L1116 73L938 73L319 73L131 73L83 73C78.4869 73 68.2938 71.1049 64.6034 74.0278C60.0455 77.6377 63 96.4365 63 102z"/>
<path style="fill:#333333; stroke:none;" d="M1191.33 73.6667L1191.67 74.3333L1191.33 73.6667M1244 73L1245 74L1244 73z"/>
<path style="fill:#656565; stroke:none;" d="M64 74L64 75L1191 75L1162 74L1095 74L864 74L64 74z"/>
<path style="fill:#b0b0b0; stroke:none;" d="M1245 74L1246 75L1245 74z"/>
<path style="fill:#333333; stroke:none;" d="M64 75L64 101L65 101L64 75M1246 75L1247 76L1246 75z"/>
<path style="fill:#656565; stroke:none;" d="M1247 76L1248 77L1247 76z"/>
<path style="fill:#333333; stroke:none;" d="M1248 77L1249 78L1248 77z"/>
<path style="fill:#b0b0b0; stroke:none;" d="M1249 78L1250 79L1249 78z"/>
<path style="fill:#333333; stroke:none;" d="M1250 79L1251 80L1250 79z"/>
<path style="fill:#656565; stroke:none;" d="M1251 80L1252 81L1251 80z"/>
<path style="fill:#333333; stroke:none;" d="M1252 81L1253 82L1252 81z"/>
<path style="fill:#b0b0b0; stroke:none;" d="M1253 82L1254 83L1253 82z"/>
<path style="fill:#333333; stroke:none;" d="M1254 83L1255 84L1254 83z"/>
<path style="fill:#656565; stroke:none;" d="M1255 84L1256 85L1255 84z"/>
<path style="fill:#333333; stroke:none;" d="M1256 85L1257 86L1256 85z"/>
<path style="fill:#656565; stroke:none;" d="M1257 86L1258 89L1259 89L1257 86z"/>
<path style="fill:#b0b0b0; stroke:none;" d="M1258 86L1259 87L1258 86z"/>
<path style="fill:#e6e6e6; stroke:none;" d="M1259 86L1243 104L1202 146C1218.9 137.685 1233.33 115.534 1247 102.525C1251.06 98.6675 1261.15 92.2204 1259 86z"/>
<path style="fill:#b0b0b0; stroke:none;" d="M1257 89L1258 90L1257 89z"/>
<path style="fill:#333333; stroke:none;" d="M1255 90L1254 92L1255 90z"/>
<path style="fill:#656565; stroke:none;" d="M1256 90L1257 91L1256 90z"/>
<path style="fill:#b0b0b0; stroke:none;" d="M1255 91L1256 92L1255 91z"/>
<path style="fill:#656565; stroke:none;" d="M1254 92L1255 93L1254 92z"/>
<path style="fill:#b0b0b0; stroke:none;" d="M1253 93L1254 94L1253 93z"/>
<path style="fill:#656565; stroke:none;" d="M1252 94L1253 95L1252 94z"/>
<path style="fill:#333333; stroke:none;" d="M1250.33 95.6667L1250.67 96.3333L1250.33 95.6667z"/>
<path style="fill:#b0b0b0; stroke:none;" d="M1251 95L1252 96L1251 95M1249 97L1250 98L1249 97z"/>
<path style="fill:#656565; stroke:none;" d="M1248 98L1249 99L1248 98z"/>
<path style="fill:#b0b0b0; stroke:none;" d="M1247 99L1248 100L1247 99z"/>
<path style="fill:#333333; stroke:none;" d="M1246 100L1247 101L1246 100z"/>
<path style="fill:#656565; stroke:none;" d="M64 101L64 102L1191 102L1162 101L1095 101L864 101L64 101z"/>
<path style="fill:#333333; stroke:none;" d="M1191 101L1192 105L1193 105L1191 101z"/>
<path style="fill:#b0b0b0; stroke:none;" d="M1245 101L1246 102L1245 101z"/>
<path style="fill:#e6e6e6; stroke:none;" d="M63.6667 102.333L64.3333 102.667L63.6667 102.333z"/>
<path style="fill:#b0b0b0; stroke:none;" d="M65 102L65 103L1187 103L1158 102L1092 102L862 102L65 102z"/>
<path style="fill:#e6e6e6; stroke:none;" d="M1187 102L1187 103L1190 103L1190 156C1195.12 154.935 1198.56 151.527 1201 147L1191 155L1191 115C1191 110.152 1192.47 103.815 1187 102z"/>
<path style="fill:#b0b0b0; stroke:none;" d="M1190 102L1191 103L1190 102z"/>
<path style="fill:#656565; stroke:none;" d="M1244 102L1245 103L1244 102M1191 103L1191 107L1192 107L1191 103z"/>
<path style="fill:#b0b0b0; stroke:none;" d="M1243 103L1244 104L1243 103z"/>
<path style="fill:#333333; stroke:none;" d="M1242 104L1243 105L1242 104z"/>
<path style="fill:#b0b0b0; stroke:none;" d="M1241 105L1242 106L1241 105z"/>
<path style="fill:#656565; stroke:none;" d="M1240 106L1241 107L1240 106z"/>
<path style="fill:#333333; stroke:none;" d="M1191 107L1191 116L1192 116L1191 107z"/>
<path style="fill:#656565; stroke:none;" d="M1238 107L1239 108L1238 107z"/>
<path style="fill:#b0b0b0; stroke:none;" d="M1239 107L1240 108L1239 107M1238 108L1239 109L1238 108z"/>
<path style="fill:#656565; stroke:none;" d="M1236 109L1237 110L1236 109z"/>
<path style="fill:#b0b0b0; stroke:none;" d="M1237 109L1238 110L1237 109M1236 110L1237 111L1236 110z"/>
<path style="fill:#656565; stroke:none;" d="M1234 111L1235 112L1234 111z"/>
<path style="fill:#b0b0b0; stroke:none;" d="M1235 111L1236 112L1235 111M1234 112L1235 113L1234 112z"/>
<path style="fill:#656565; stroke:none;" d="M1232 113L1233 114L1232 113z"/>
<path style="fill:#b0b0b0; stroke:none;" d="M1233 113L1234 114L1233 113M1232 114L1233 115L1232 114z"/>
<path style="fill:#656565; stroke:none;" d="M1230 115L1231 116L1230 115z"/>
<path style="fill:#b0b0b0; stroke:none;" d="M1231 115L1232 116L1231 115z"/>
<path style="fill:#656565; stroke:none;" d="M1191.33 116.667L1191.67 117.333L1191.33 116.667z"/>
<path style="fill:#333333; stroke:none;" d="M1229 116L1230 117L1229 116z"/>
<path style="fill:#b0b0b0; stroke:none;" d="M1230 116L1231 117L1230 116z"/>
<path style="fill:#656565; stroke:none;" d="M1229 117L1230 118L1229 117z"/>
<path style="fill:#333333; stroke:none;" d="M1191 118L1191 145L1192 145L1191 118z"/>
<path style="fill:#b0b0b0; stroke:none;" d="M1228 118L1229 119L1228 118z"/>
<path style="fill:#333333; stroke:none;" d="M1226 119L1225 121L1226 119z"/>
<path style="fill:#656565; stroke:none;" d="M1227 119L1228 120L1227 119z"/>
<path style="fill:#b0b0b0; stroke:none;" d="M1226 120L1227 121L1226 120z"/>
<path style="fill:#656565; stroke:none;" d="M1225 121L1226 122L1225 121z"/>
<path style="fill:#b0b0b0; stroke:none;" d="M1224 122L1225 123L1224 122z"/>
<path style="fill:#333333; stroke:none;" d="M1222 123L1221 125L1222 123z"/>
<path style="fill:#656565; stroke:none;" d="M1223 123L1224 124L1223 123z"/>
<path style="fill:#b0b0b0; stroke:none;" d="M1222 124L1223 125L1222 124z"/>
<path style="fill:#656565; stroke:none;" d="M1221 125L1222 126L1221 125z"/>
<path style="fill:#b0b0b0; stroke:none;" d="M1220 126L1221 127L1220 126z"/>
<path style="fill:#333333; stroke:none;" d="M1218 127L1217 129L1218 127z"/>
<path style="fill:#656565; stroke:none;" d="M1219 127L1220 128L1219 127z"/>
<path style="fill:#b0b0b0; stroke:none;" d="M1218 128L1219 129L1218 128z"/>
<path style="fill:#656565; stroke:none;" d="M1217 129L1218 130L1217 129z"/>
<path style="fill:#b0b0b0; stroke:none;" d="M1216 130L1217 131L1216 130z"/>
<path style="fill:#333333; stroke:none;" d="M1214 131L1213 133L1214 131z"/>
<path style="fill:#656565; stroke:none;" d="M1215 131L1216 132L1215 131z"/>
<path style="fill:#b0b0b0; stroke:none;" d="M1214 132L1215 133L1214 132z"/>
<path style="fill:#656565; stroke:none;" d="M1213 133L1214 134L1213 133z"/>
<path style="fill:#b0b0b0; stroke:none;" d="M1212 134L1213 135L1212 134z"/>
<path style="fill:#333333; stroke:none;" d="M1210 135L1211 136L1210 135z"/>
<path style="fill:#656565; stroke:none;" d="M1211 135L1212 136L1211 135z"/>
<path style="fill:#b0b0b0; stroke:none;" d="M1210 136L1211 137L1210 136z"/>
<path style="fill:#656565; stroke:none;" d="M1209 137L1210 138L1209 137z"/>
<path style="fill:#b0b0b0; stroke:none;" d="M1208 138L1209 139L1208 138z"/>
<path style="fill:#333333; stroke:none;" d="M1206 139L1205 141L1206 139z"/>
<path style="fill:#656565; stroke:none;" d="M1207 139L1208 140L1207 139z"/>
<path style="fill:#b0b0b0; stroke:none;" d="M1206 140L1207 141L1206 140z"/>
<path style="fill:#656565; stroke:none;" d="M1205 141L1206 142L1205 141z"/>
<path style="fill:#333333; stroke:none;" d="M1203 142L1204 143L1203 142z"/>
<path style="fill:#b0b0b0; stroke:none;" d="M1204 142L1205 143L1204 142M1203 143L1204 144L1203 143z"/>
<path style="fill:#656565; stroke:none;" d="M1201 144L1202 145L1201 144z"/>
<path style="fill:#b0b0b0; stroke:none;" d="M1202 144L1203 145L1202 144z"/>
<path style="fill:#656565; stroke:none;" d="M1191 145L1192 146L1191 145z"/>
<path style="fill:#b0b0b0; stroke:none;" d="M1201 145L1202 146L1201 145z"/>
<path style="fill:#333333; stroke:none;" d="M1191 146L1191 150L1192 150L1191 146M1199 146L1200 147L1199 146z"/>
<path style="fill:#b0b0b0; stroke:none;" d="M1200 146L1201 147L1200 146M1199 147L1200 148L1199 147z"/>
<path style="fill:#656565; stroke:none;" d="M1197 148L1198 149L1197 148z"/>
<path style="fill:#b0b0b0; stroke:none;" d="M1198 148L1199 149L1198 148M1197 149L1198 150L1197 149z"/>
<path style="fill:#656565; stroke:none;" d="M1191.33 150.667L1191.67 151.333L1191.33 150.667z"/>
<path style="fill:#333333; stroke:none;" d="M1195 150L1196 151L1195 150z"/>
<path style="fill:#b0b0b0; stroke:none;" d="M1196 150L1197 151L1196 150z"/>
<path style="fill:#333333; stroke:none;" d="M1192 151L1193 152L1192 151z"/>
<path style="fill:#b0b0b0; stroke:none;" d="M1195 151L1196 152L1195 151z"/>
<path style="fill:#333333; stroke:none;" d="M1191 152L1193 154L1191 152z"/>
<path style="fill:#656565; stroke:none;" d="M1193 152L1194 153L1193 152z"/>
<path style="fill:#b0b0b0; stroke:none;" d="M1194 152L1195 153L1194 152z"/>
<path style="fill:#656565; stroke:none;" d="M1191 153L1192 154L1191 153z"/>
<path style="fill:#b0b0b0; stroke:none;" d="M1193 153L1194 154L1193 153M1191.67 154.333L1192.33 154.667L1191.67 154.333z"/>
</svg>
