<svg viewBox="0 0 256 256" xmlns="http://www.w3.org/2000/svg"><path d="m227.9209 175.2168a4.00772 4.00772 0 0 1 0 1.5664c-.02344.11866-.06787.228-.10156.34229a3.90625 3.90625 0 0 1 -.125.4043 4.0293 4.0293 0 0 1 -.20313.38574c-.05566.10107-.09961.20556-.16455.30273a4.04019 4.04019 0 0 1 -.5.61182l-31.99854 31.998a3.99957 3.99957 0 0 1 -5.65624-5.65625l25.17089-25.17183h-182.34277a4 4 0 0 1 0-8h182.34277l-25.17089-25.17188a3.99957 3.99957 0 0 1 5.65624-5.65625l31.998 31.998a4.0187 4.0187 0 0 1 .50049.61182c.06494.09717.10889.20166.16455.30273a4.0293 4.0293 0 0 1 .20313.38574 3.90625 3.90625 0 0 1 .125.4043c.03371.11431.07817.22368.10161.34234zm-199.74121-94.0928a3.97738 3.97738 0 0 0 .12646.40577 3.892 3.892 0 0 0 .20215.38427c.05518.10108.1001.20655.165.3042a4.04019 4.04019 0 0 0 .5.61182l31.99854 31.998a3.99957 3.99957 0 1 0 5.65624-5.65625l-25.17085-25.17181h182.34277a4 4 0 0 0 0-8h-182.34277l25.17089-25.17188a3.99957 3.99957 0 1 0 -5.65624-5.65625l-31.998 31.99805a4.0187 4.0187 0 0 0 -.50049.61182c-.06494.09765-.10986.20312-.165.3042a3.892 3.892 0 0 0 -.20215.38427 3.97738 3.97738 0 0 0 -.12646.40577c-.03321.11377-.07715.22265-.10059.34082a4.00772 4.00772 0 0 0 0 1.5664c.02335.11817.06729.22705.1005.3408z"/></svg>