<svg enable-background="new 0 0 76.00 76.00" height="76" viewBox="0 0 76 76" width="76" xmlns="http://www.w3.org/2000/svg"><path d="m60.1666 38h-.089s1.1764 1.9002-12.8027 2.6107l-3.616 5.306h.5854c.8744 0 1.5833.7089 1.5833 1.5833 0 .8745-.7089 1.5834-1.5833 1.5834h-2.8299l-1.7414 2.375h.2171c.8744 0 1.5833.7088 1.5833 1.5833 0 .8744-.7089 1.5833-1.5833 1.5833h-2.6542c-2.051 2.5693-3.9457 4.6638-5.2625 5.5417 0 0-2.7708 0-2.7708-1.5834 0 0 6.4371-11.8013 8.7138-17.7415-14.2555.1179-14.2555-.8626-14.2555-.8626s-3.1666 5.9375-6.3333 5.9375l2.375-7.9167h.0891l-2.375-7.9167c3.1666 0 6.3333 5.9375 6.3333 5.9375s0-.9805 14.2555-.8626c-2.2767-5.9402-8.7138-17.7415-8.7138-17.7415 0-1.5834 2.7708-1.5833 2.7708-1.5833 1.3167.8778 3.2114 2.9724 5.2625 5.5416h2.6542c.8744 0 1.5833.7089 1.5833 1.5833 0 .8745-.7089 1.5834-1.5833 1.5834h-.2171l1.7413 2.375h2.8299c.8745 0 1.5834.7088 1.5834 1.5833 0 .8744-.7089 1.5833-1.5834 1.5833h-.5854l3.616 5.306c13.9791.7105 12.8027 2.6107 12.8027 2.6107z" stroke-linejoin="round" stroke-width=".2"/></svg>